<svg width="48" height="48" viewBox="0 0 48 48" fill="none" xmlns="http://www.w3.org/2000/svg">
<g clip-path="url(#clip0_523_14333)">
<rect width="48" height="48" rx="10" fill="black"/>
<path d="M43.3557 23.7215C43.3566 24.1106 43.3585 24.5124 43.3365 24.9125C43.3246 25.1184 43.3118 25.3226 43.2962 25.5285C43.2816 25.7135 43.2633 25.8975 43.2459 26.0815C43.1909 26.5456 43.1305 27.0079 43.0445 27.4674C42.9987 27.7109 42.9511 27.9535 42.898 28.1952C42.8486 28.4185 42.7946 28.6401 42.7387 28.8625C42.6243 29.2873 42.5025 29.7093 42.3634 30.1267C42.2261 30.5387 42.0723 30.9424 41.9112 31.3451C41.7574 31.7131 41.5944 32.0766 41.4233 32.4363C41.2667 32.765 41.0955 33.0863 40.9207 33.4048V33.4058C40.9179 33.4113 40.9143 33.4167 40.9115 33.4222C40.8182 33.587 40.7166 33.7664 40.6104 33.9431C40.4904 34.1427 40.3669 34.3386 40.2414 34.5345C40.0355 34.8576 39.8139 35.1716 39.5878 35.481C39.8268 34.5583 39.9037 33.5925 39.8725 32.6414C39.8286 31.3122 39.5787 29.9967 39.2088 28.7215C39.164 28.565 39.1164 28.4094 39.0679 28.2547C39.3553 27.9681 39.6135 27.6532 39.8359 27.3145C40.2616 26.6673 40.5719 25.935 40.7165 25.1734C40.7898 24.7871 40.8328 24.3962 40.8319 24.0016C40.8319 23.8057 40.8237 23.608 40.8026 23.413C40.7825 23.2171 40.7532 23.0239 40.7165 22.8308C40.6451 22.4527 40.5316 22.0774 40.3833 21.7222C40.2332 21.3615 40.052 21.0155 39.8368 20.6896C39.6125 20.3509 39.3544 20.0351 39.0679 19.7476C39.1173 19.5929 39.164 19.4373 39.2088 19.2808C39.5787 18.0056 39.8286 16.6901 39.8725 15.3609C39.9037 14.4107 39.8268 13.4468 39.5887 12.524C39.6885 12.6595 39.7883 12.7987 39.8853 12.9378C40.1243 13.2784 40.3486 13.628 40.5655 13.9832C40.7669 14.321 40.9619 14.6616 41.1441 15.0094C41.3354 15.3747 41.5121 15.7463 41.6823 16.1207C41.8443 16.4906 41.9972 16.8622 42.1382 17.2403C42.2838 17.6284 42.4128 18.0212 42.5355 18.4166C42.6518 18.8112 42.7625 19.2094 42.8541 19.6122C42.9035 19.831 42.9511 20.0507 42.995 20.2713C43.0371 20.4809 43.0728 20.6905 43.1095 20.9011C43.1131 20.9304 43.1159 20.9615 43.1223 20.9908C43.1259 21.0311 43.1369 21.0732 43.1424 21.1125C43.1479 21.1519 43.1534 21.1922 43.1598 21.2316C43.1818 21.3853 43.2019 21.54 43.2202 21.6938C43.2614 22.039 43.2971 22.385 43.3164 22.7319C43.3347 23.0578 43.3475 23.3828 43.3557 23.7096C43.3557 23.7133 43.3557 23.7178 43.3557 23.7215Z" fill="white"/>
<path d="M36.3359 33.2472C36.3624 33.5493 36.3762 33.855 36.3762 34.1379C36.3725 34.4125 36.3551 34.6871 36.3267 34.937C36.3029 35.1238 36.2718 35.3078 36.2334 35.4936C36.1986 35.6419 36.1601 35.7893 36.1153 35.9358C36.0732 36.0648 36.0265 36.1912 35.9752 36.3175C35.9093 36.4676 35.8388 36.6123 35.7729 36.7303C35.7116 36.8365 35.6466 36.9381 35.5788 37.0388C35.5038 37.1414 35.4278 37.2393 35.3472 37.3345C35.2667 37.4242 35.1834 37.5085 35.0982 37.5908C35.0397 37.6439 34.9802 37.6961 34.9197 37.7446C34.8502 37.8005 34.7806 37.8517 34.7092 37.903C34.5829 37.9881 34.4538 38.0641 34.3449 38.1245C34.2387 38.1785 34.1325 38.2289 34.0245 38.2756C33.9119 38.325 33.7974 38.3635 33.6839 38.4019C33.4276 38.4806 33.1704 38.5383 32.9104 38.5813C32.7346 38.6042 32.5589 38.6234 32.3831 38.6363C32.2046 38.6491 32.027 38.6491 31.8732 38.6482C31.5858 38.6408 31.2992 38.6216 31.0127 38.5887C30.7344 38.5575 30.4589 38.5081 30.1833 38.4532C29.7824 38.368 29.386 38.2664 28.9915 38.1447C28.596 38.0229 28.206 37.881 27.8408 37.7382C27.4746 37.5899 27.1121 37.4306 26.7523 37.2613C26.6233 37.2009 26.4951 37.1386 26.3669 37.0745C26.2983 37.1194 26.2296 37.1643 26.161 37.2091C26.0932 37.2531 26.0255 37.2961 25.9577 37.3391C25.9248 37.3602 25.8909 37.3812 25.858 37.4023C25.6007 37.5643 25.3408 37.7218 25.078 37.8755C25.0158 37.9122 24.9535 37.9479 24.8913 37.9845C24.829 38.0211 24.7668 38.0568 24.7036 38.0916C24.7677 38.1264 24.8327 38.1602 24.8968 38.1932C24.9608 38.2271 25.0258 38.26 25.0908 38.2939C25.7188 38.6161 26.3596 38.9118 27.0151 39.1745C28.2472 39.6679 29.5261 40.0643 30.8406 40.2666C32.0526 40.4534 33.2976 40.4927 34.506 40.2584C34.3522 40.3582 34.1966 40.4543 34.0418 40.5495L34.0382 40.5513C34.0345 40.5541 34.0309 40.5559 34.0272 40.5577C33.6986 40.7536 33.3617 40.9459 33.0175 41.1271C32.6705 41.3102 32.3172 41.4796 31.9602 41.6443C31.5482 41.8274 31.1326 42.0041 30.7088 42.157C30.4863 42.2375 30.2639 42.3153 30.0387 42.3895C29.8272 42.46 29.6139 42.5241 29.3997 42.5881H29.3979C29.3933 42.59 29.3888 42.5909 29.3842 42.5927C29.0162 42.6962 28.6363 42.7978 28.2518 42.882C28.0568 42.925 27.8609 42.969 27.6641 43.0056C27.47 43.0413 27.275 43.0761 27.0801 43.109C26.6855 43.1703 26.2653 43.2289 25.8433 43.2674C25.6081 43.2884 25.3719 43.3077 25.1357 43.3223C24.9242 43.3351 24.7128 43.3424 24.5013 43.3498C24.2541 43.3543 24.0079 43.3571 23.7607 43.3543C23.5346 43.3516 23.3076 43.3434 23.0824 43.3342C22.6265 43.315 22.1716 43.271 21.7184 43.2216C21.3056 43.1685 20.8927 43.1127 20.4835 43.0339C20.2812 42.9946 20.0789 42.9571 19.8784 42.9113C19.6752 42.8655 19.4729 42.8179 19.2706 42.7694C18.865 42.665 18.4623 42.5515 18.0641 42.4224C17.6594 42.2925 17.2612 42.1469 16.8649 41.9931C16.6671 41.9135 16.4712 41.832 16.2762 41.7469C16.0611 41.6535 15.8487 41.5546 15.6373 41.4558C15.24 41.269 14.8537 41.0603 14.4701 40.847C14.1561 40.6667 13.8256 40.4699 13.5034 40.2611C13.725 40.3042 13.9492 40.338 14.1735 40.3627C14.7237 40.4232 15.2775 40.436 15.8295 40.4085C16.5573 40.3728 17.2823 40.2685 17.9917 40.1128C19.2596 39.8336 20.4936 39.4125 21.6791 38.8843C22.4727 38.5301 23.2481 38.1355 24.0024 37.7053C24.1251 37.6357 24.2477 37.5643 24.3695 37.4929C24.5791 37.3702 24.786 37.2439 24.992 37.1157C25.0414 37.0846 25.0908 37.0535 25.1403 37.0224C25.2236 36.9702 25.3069 36.9171 25.3893 36.8631C25.4726 36.8091 25.5559 36.7541 25.6392 36.6992C26.474 36.1481 27.2833 35.5577 28.0632 34.9325C29.094 34.1077 30.0772 33.2261 31.0145 32.296C31.8137 31.5033 32.5753 30.6721 33.2976 29.8088C33.4624 29.8528 33.6299 29.8894 33.7993 29.9196C34.1343 29.9791 34.4748 30.0084 34.8145 30.0084C35.0671 30.0084 35.3198 29.9919 35.5706 29.9608C35.6109 30.0752 35.6512 30.1897 35.6896 30.3059C35.8727 30.868 36.0329 31.4465 36.1574 32.0498C36.2343 32.4388 36.2956 32.8343 36.3359 33.2325C36.3359 33.2371 36.3368 33.2417 36.3368 33.2462L36.3359 33.2472Z" fill="white"/>
<path d="M29.8567 20.6271C29.7844 20.7332 29.7158 20.8413 29.6508 20.9511C29.2507 21.6258 28.9944 22.3783 28.88 23.1527C28.7674 23.9134 28.8159 24.6943 28.9953 25.4404C29.161 26.1297 29.4613 26.7833 29.8567 27.371C29.5903 27.6776 29.3185 27.9825 29.042 28.2818C28.3692 29.0105 27.667 29.7117 26.9375 30.3882C26.9347 30.391 26.9292 30.3965 26.9228 30.4019C26.9091 30.4129 26.8963 30.4248 26.8834 30.4376C26.8825 30.4386 26.8807 30.4395 26.8798 30.4413C26.8633 30.4541 26.8487 30.4688 26.834 30.4834L26.8294 30.488C26.8285 30.488 26.8285 30.4889 26.8276 30.4889C26.4724 30.8157 26.1081 31.1361 25.7373 31.451C24.972 32.0991 24.1738 32.7198 23.3389 33.3093L23.3353 33.3121C23.3316 33.3139 23.3289 33.3167 23.3261 33.3185C23.2337 33.3826 23.1394 33.4485 23.0432 33.5144C22.6725 33.768 22.2944 34.0151 21.9063 34.254C21.845 34.2925 21.7836 34.33 21.7214 34.3676C21.6802 34.3923 21.6399 34.417 21.5987 34.4417C21.5401 34.4774 21.4806 34.5122 21.4211 34.547C21.1584 34.7017 20.8911 34.8527 20.6201 35.0001C20.5524 35.0367 20.4846 35.0733 20.416 35.11C20.373 35.1328 20.329 35.1557 20.286 35.1777C19.6324 35.5155 18.9367 35.8359 18.2043 36.1169L18.2007 36.1178C18.197 36.1197 18.1924 36.1215 18.1888 36.1224C17.6853 36.3101 17.1617 36.4813 16.6161 36.6213C16.2572 36.711 15.8654 36.7916 15.4608 36.8502C15.1596 36.8914 14.8539 36.9198 14.5417 36.9307C14.2936 36.9371 14.0364 36.9307 13.7773 36.9124C13.6016 36.896 13.4267 36.8749 13.251 36.8438C13.0972 36.8145 12.9461 36.7797 12.7951 36.7394C12.6559 36.6982 12.5186 36.6534 12.3841 36.6021C12.2495 36.5463 12.1177 36.4868 11.9895 36.4208C11.8833 36.3632 11.7808 36.3028 11.6801 36.2378C11.5739 36.1664 11.4705 36.0876 11.3707 36.0062C11.27 35.9183 11.1739 35.8286 11.0832 35.7352C10.9816 35.6253 10.8883 35.5118 10.8004 35.3956C10.7024 35.2583 10.6136 35.1173 10.5331 34.9726C10.4251 34.7667 10.3326 34.557 10.2557 34.3428C10.1587 34.06 10.09 33.7734 10.0378 33.4842C9.97833 33.1143 9.94904 32.7207 9.94629 32.3243C9.95178 31.7549 10.0076 31.1892 10.1037 30.6271C10.2612 29.752 10.5056 28.8924 10.8104 28.0438C10.8498 27.9376 10.8974 27.8067 10.9478 27.6767C11.1968 27.0378 11.4769 26.4089 11.7835 25.7891C11.9062 25.9869 12.0316 26.1828 12.1589 26.3777C12.8885 27.4927 13.6803 28.5656 14.528 29.5945C15.3564 30.6006 16.2398 31.56 17.1699 32.4735C17.8812 33.172 18.6208 33.8439 19.388 34.482C19.4822 34.5607 19.5775 34.6385 19.6727 34.7163C19.7377 34.6834 19.8026 34.6504 19.8667 34.6165C19.9207 34.5891 19.9747 34.5607 20.0278 34.5323C20.167 34.4591 20.3043 34.385 20.4407 34.3099C20.5743 34.2367 20.708 34.1616 20.8398 34.0856C20.8609 34.0737 20.8828 34.0609 20.9039 34.0481C21.0458 33.9666 21.1859 33.8833 21.3241 33.7991C21.2307 33.724 21.1364 33.648 21.044 33.5721C20.7172 33.3038 20.394 33.0292 20.0754 32.7509C20.0736 32.7491 20.0718 32.7473 20.07 32.7463C20.0654 32.7427 20.0608 32.7381 20.059 32.7372C19.1234 31.9087 18.2226 31.0363 17.3667 30.1173C16.7909 29.4993 16.2371 28.8631 15.7025 28.2095C15.6118 28.0969 15.5212 27.9852 15.4315 27.8717C15.1084 27.4644 14.7944 27.0515 14.4886 26.6313C14.4703 26.6048 14.4529 26.5782 14.4319 26.5535C14.1224 26.1269 13.824 25.6939 13.5347 25.2554C13.2619 24.8417 13.002 24.4224 12.7521 23.9995C13.0011 23.5766 13.2619 23.1564 13.5347 22.7426C13.8231 22.3041 14.1224 21.8711 14.4319 21.4445C14.452 21.4198 14.4703 21.3933 14.4886 21.3676C14.7935 20.9484 15.1084 20.5346 15.4315 20.1272C15.5212 20.0146 15.6118 19.902 15.7025 19.7894C16.2371 19.1358 16.7909 18.4987 17.3667 17.8817C18.2226 16.9617 19.1234 16.0893 20.059 15.2618C20.0608 15.2599 20.0654 15.2563 20.07 15.2517C20.0718 15.2499 20.0736 15.248 20.0754 15.2471C20.3968 14.967 20.7217 14.6896 21.0513 14.4205C21.1447 14.3445 21.238 14.2685 21.3323 14.1935C21.2362 14.1358 21.1401 14.0781 21.043 14.0214C20.9781 13.9829 20.9131 13.9454 20.8471 13.9079C20.7126 13.83 20.5771 13.7541 20.4407 13.679C20.1908 13.5417 19.9372 13.4071 19.68 13.2762C19.6324 13.3147 19.5848 13.354 19.5372 13.3934C19.4896 13.4328 19.442 13.4712 19.3953 13.5115C18.6254 14.1514 17.883 14.8242 17.1699 15.5254C16.2407 16.4381 15.3574 17.3984 14.528 18.4044C13.6803 19.4343 12.8894 20.5062 12.1589 21.6221C12.0316 21.8162 11.9062 22.013 11.7826 22.2098C11.476 21.5901 11.1958 20.9621 10.9478 20.3231C10.8974 20.1931 10.8498 20.0632 10.8104 19.9561C10.5065 19.1075 10.2612 18.2479 10.1037 17.3727C10.0076 16.8107 9.95178 16.2449 9.94629 15.6755C9.94904 15.2792 9.97833 14.8855 10.0378 14.5166C10.0891 14.2273 10.1577 13.9408 10.2557 13.6579C10.3326 13.4437 10.4251 13.235 10.5331 13.0281C10.6136 12.8835 10.7024 12.7434 10.8004 12.6052C10.8883 12.488 10.9816 12.3754 11.0832 12.2656C11.1739 12.1713 11.27 12.0816 11.3707 11.9946C11.4714 11.9131 11.5739 11.8344 11.6801 11.763C11.7808 11.698 11.8824 11.6367 11.9895 11.5799C12.1177 11.514 12.2495 11.4545 12.3841 11.3996C12.5186 11.3474 12.6559 11.3026 12.7951 11.2614C12.9461 11.2202 13.0981 11.1863 13.251 11.157C13.4267 11.1268 13.6016 11.1048 13.7773 11.0884C14.0373 11.07 14.2936 11.0636 14.5417 11.07C14.8539 11.081 15.1596 11.1094 15.4608 11.1506C15.8654 11.2092 16.2572 11.2897 16.6161 11.3795C17.1617 11.5195 17.6862 11.6907 18.1888 11.8784C18.1924 11.8802 18.197 11.8811 18.2007 11.8829L18.2043 11.8848C18.9367 12.1658 19.6333 12.4862 20.286 12.824C20.3299 12.8469 20.373 12.8689 20.416 12.8917C20.4846 12.9274 20.5524 12.965 20.6201 13.0016C20.8911 13.149 21.1584 13.3 21.4211 13.4547C21.4248 13.4566 21.4294 13.4593 21.433 13.4611C21.5108 13.5069 21.5877 13.5527 21.6646 13.5994C21.7452 13.6479 21.8257 13.6973 21.9063 13.7467C22.2935 13.9857 22.6725 14.2328 23.0432 14.4873C23.1384 14.5523 23.2337 14.6182 23.3261 14.6832C23.3298 14.6851 23.3325 14.6878 23.3353 14.6896L23.3389 14.6924C24.1738 15.281 24.972 15.9016 25.7373 16.5507C26.1081 16.8656 26.4733 17.186 26.8276 17.5128C26.8276 17.5128 26.8285 17.5137 26.8294 17.5137L26.834 17.5183C26.8487 17.532 26.8633 17.5476 26.8798 17.5604C26.8807 17.5613 26.8825 17.5622 26.8834 17.5641C26.8963 17.576 26.9091 17.5879 26.9228 17.5998C26.9283 17.6052 26.9347 17.6107 26.9375 17.6135C27.667 18.29 28.3692 18.9912 29.042 19.7199C29.3185 20.0156 29.5913 20.3204 29.8567 20.6271Z" fill="white"/>
<path d="M36.3759 13.8612C36.3759 14.1441 36.3621 14.4498 36.3356 14.7519V14.7547C36.3356 14.7592 36.3347 14.7647 36.3347 14.7693C36.2944 15.1666 36.2331 15.563 36.1562 15.952C36.0308 16.5544 35.8706 17.1329 35.6884 17.6959C35.6499 17.8122 35.6097 17.9275 35.5694 18.042C35.4348 18.0255 35.2993 18.0127 35.1639 18.0044C35.1547 18.0026 35.1455 18.0017 35.1364 18.0008C34.6961 17.9779 34.2503 18.0035 33.8136 18.0777C33.7779 18.0822 33.7413 18.0877 33.7065 18.0969C33.5683 18.1234 33.431 18.1546 33.2955 18.1912C32.5732 17.3279 31.8116 16.4976 31.0133 15.7049C30.0768 14.7748 29.0928 13.8933 28.062 13.0685C27.2821 12.4432 26.4728 11.8528 25.638 11.3026C25.4723 11.1928 25.3057 11.0857 25.1381 10.9795C25.0887 10.9483 25.0393 10.9172 24.9898 10.8861C24.7839 10.757 24.5761 10.6316 24.3674 10.508C24.2456 10.4357 24.1238 10.3652 24.0012 10.2956C23.246 9.8654 22.4715 9.47085 21.6778 9.11658C20.4924 8.58839 19.2584 8.16637 17.9905 7.88809C17.2811 7.73155 16.5551 7.62719 15.8283 7.5924C15.2754 7.56586 14.7215 7.57867 14.1723 7.63817C13.9471 7.66289 13.721 7.69676 13.4985 7.7407C13.6505 7.64275 13.8034 7.54755 13.9572 7.45326C14.3032 7.24546 14.6538 7.0459 15.0108 6.85823C15.3697 6.66966 15.7349 6.49573 16.1029 6.3282C16.5002 6.15336 16.9222 5.97851 17.3515 5.82106C17.7534 5.67368 18.1617 5.54186 18.5727 5.41919C18.9691 5.30659 19.3673 5.20132 19.7692 5.11069C20.1509 5.02373 20.5363 4.95233 20.9226 4.88825C21.3465 4.82325 21.7712 4.76649 22.1996 4.72621C22.6464 4.68411 23.0931 4.6603 23.5416 4.64657C23.7522 4.64291 23.9874 4.63833 24.2218 4.64291C24.4552 4.64657 24.6868 4.6539 24.9193 4.66397C25.3487 4.68136 25.778 4.72072 26.2055 4.76741C26.6165 4.81684 27.0257 4.8736 27.4331 4.94866C27.8597 5.02739 28.2835 5.1171 28.7037 5.22146C29.1175 5.32673 29.5532 5.44849 29.9826 5.58946C30.3991 5.72677 30.811 5.87599 31.2202 6.03802C31.6074 6.19547 31.9919 6.36116 32.3681 6.54333C32.7426 6.72458 33.1106 6.91499 33.474 7.1173C33.7019 7.24637 33.928 7.37911 34.1514 7.51642C34.1523 7.51642 34.1532 7.51734 34.1532 7.51825C34.1679 7.52649 34.1816 7.53565 34.1953 7.54389C34.3006 7.60888 34.405 7.67479 34.5075 7.74253C33.2982 7.50819 32.0532 7.54755 30.8403 7.7343C29.5258 7.9366 28.2469 8.33298 27.0148 8.82639C26.363 9.08729 25.7249 9.38206 25.0997 9.70245C25.0347 9.73541 24.9706 9.76928 24.9056 9.80224C24.8406 9.83611 24.7765 9.86998 24.7125 9.90476C24.8379 9.97617 24.9624 10.0476 25.0869 10.1208C25.3496 10.2746 25.6096 10.432 25.8668 10.5941C25.8751 10.5996 25.8833 10.6041 25.8915 10.6106C25.9648 10.6563 26.038 10.703 26.1103 10.7497C26.1158 10.7534 26.1213 10.7561 26.1268 10.7598C26.2101 10.8138 26.2934 10.8678 26.3758 10.9218C26.4481 10.8861 26.5204 10.8504 26.5937 10.8156C26.6495 10.7891 26.7053 10.7616 26.7612 10.736C27.1173 10.5675 27.477 10.4101 27.8405 10.2627C28.2057 10.119 28.5957 9.978 28.9912 9.85533C29.3848 9.73358 29.7821 9.63105 30.183 9.54683C30.4586 9.49191 30.7341 9.44247 31.0124 9.41135C31.298 9.37931 31.5855 9.35917 31.8729 9.35185C32.0267 9.35185 32.2043 9.35185 32.3828 9.36375C32.5595 9.37656 32.7343 9.39579 32.9101 9.41867C33.1701 9.4617 33.4273 9.51937 33.6836 9.59809C33.798 9.63654 33.9125 9.67499 34.0241 9.72442C34.1322 9.77203 34.2384 9.82146 34.3445 9.87547C34.4526 9.93589 34.5816 10.0119 34.7089 10.097C34.7803 10.1483 34.8499 10.1995 34.9194 10.2554C34.9798 10.3048 35.0393 10.357 35.0979 10.4092C35.184 10.4915 35.2664 10.5758 35.3469 10.6655C35.4275 10.7607 35.5035 10.8586 35.5785 10.9612C35.6463 11.0609 35.7113 11.1635 35.7726 11.2697C35.8376 11.3877 35.9081 11.5324 35.9749 11.6825C36.0262 11.8088 36.0729 11.9352 36.115 12.0642C36.1589 12.2107 36.1983 12.3572 36.2331 12.5055C36.2715 12.6904 36.3026 12.8753 36.3264 13.0621C36.3548 13.312 36.3722 13.5866 36.3759 13.8612Z" fill="white"/>
<path d="M10.1857 22.883C10.3661 23.2592 10.5537 23.6318 10.7505 23.9998C10.5546 24.3678 10.3661 24.7404 10.1857 25.1166C9.64196 26.2508 9.1751 27.4235 8.819 28.6309C8.44367 29.8988 8.19102 31.2051 8.13243 32.5279C8.0894 33.5147 8.16447 34.518 8.41255 35.4755C8.31277 35.341 8.21481 35.2046 8.11961 35.0663C7.88709 34.7285 7.66373 34.3862 7.44952 34.0374C7.23165 33.6721 7.02294 33.3014 6.8252 32.9242C6.64304 32.5773 6.47643 32.223 6.3144 31.866C6.14596 31.4815 5.98485 31.0934 5.84112 30.6989C5.69374 30.2951 5.56009 29.8869 5.43468 29.4758C5.31567 29.0593 5.20124 28.641 5.1097 28.2162C5.06118 27.9938 5.01633 27.7713 4.9733 27.548C4.93302 27.3393 4.89915 27.1296 4.86528 26.9209C4.80761 26.5236 4.75085 26.1007 4.71698 25.6759C4.68403 25.264 4.66023 24.853 4.64833 24.4401C4.64009 23.9705 4.64741 23.5027 4.66846 23.034C4.68952 22.58 4.73255 22.1268 4.78381 21.6755C4.83324 21.2846 4.88817 20.8956 4.9614 20.5084C5.0383 20.1028 5.12526 19.701 5.22321 19.3C5.3294 18.8862 5.44383 18.4706 5.5784 18.0605C5.71662 17.6367 5.86859 17.2183 6.03153 16.8036C6.15328 16.5052 6.2787 16.2095 6.41326 15.9157C6.546 15.6264 6.68698 15.3408 6.83344 15.0579C6.90759 14.9151 6.98449 14.7732 7.0623 14.6323C7.08793 14.5966 7.10624 14.5526 7.12729 14.5151C7.13736 14.4986 7.14652 14.4812 7.15567 14.4647C7.15933 14.4602 7.16208 14.4547 7.16483 14.4492C7.37263 14.0867 7.58684 13.7287 7.81752 13.38C8.00976 13.0898 8.20841 12.8051 8.41346 12.524C8.16538 13.4816 8.09123 14.4849 8.13426 15.4717C8.19285 16.7945 8.4455 18.1008 8.82083 19.3687C9.17509 20.5752 9.64196 21.7488 10.1857 22.883Z" fill="white"/>
</g>
<defs>
<clipPath id="clip0_523_14333">
<rect width="48" height="48" rx="10" fill="white"/>
</clipPath>
</defs>
</svg>
